<svg xmlns="http://www.w3.org/2000/svg" viewBox="0 0 360 240" width="360" height="240" role="img">
<rect width="360" height="240" fill="#fff"/>
<text x="180.0" y="20" text-anchor="middle" font-size="14" font-weight="700" fill="#111" font-family="Inter,Arial,sans-serif">Số bài đạt yêu cầu</text>
<line x1="44" x2="344" y1="204.0" y2="204.0" stroke="#e5e7eb"/><text x="38" y="208.0" text-anchor="end" font-size="11" fill="#555" font-family="Inter,Arial,sans-serif">0</text>
<line x1="44" x2="344" y1="149.3" y2="149.3" stroke="#e5e7eb"/><text x="38" y="153.3" text-anchor="end" font-size="11" fill="#555" font-family="Inter,Arial,sans-serif">5</text>
<line x1="44" x2="344" y1="94.7" y2="94.7" stroke="#e5e7eb"/><text x="38" y="98.7" text-anchor="end" font-size="11" fill="#555" font-family="Inter,Arial,sans-serif">10</text>
<line x1="44" x2="344" y1="40.0" y2="40.0" stroke="#e5e7eb"/><text x="38" y="44.0" text-anchor="end" font-size="11" fill="#555" font-family="Inter,Arial,sans-serif">15</text>
<line x1="44" x2="44" y1="40" y2="204" stroke="#333"/><line x1="44" x2="344" y1="204.0" y2="204.0" stroke="#333"/>
<rect x="62.8" y="105.6" width="37.5" height="98.4" fill="#a78bfa"/>
<text x="81.5" y="101.6" text-anchor="middle" font-size="11" font-weight="600" fill="#111" font-family="Inter,Arial,sans-serif">9</text>
<text x="81.5" y="220.0" text-anchor="middle" font-size="11" fill="#333" font-family="Inter,Arial,sans-serif">Tổ 1</text>
<rect x="137.8" y="50.9" width="37.5" height="153.1" fill="#a78bfa"/>
<text x="156.5" y="46.9" text-anchor="middle" font-size="11" font-weight="600" fill="#111" font-family="Inter,Arial,sans-serif">14</text>
<text x="156.5" y="220.0" text-anchor="middle" font-size="11" fill="#333" font-family="Inter,Arial,sans-serif">Tổ 2</text>
<rect x="212.8" y="138.4" width="37.5" height="65.6" fill="#a78bfa"/>
<text x="231.5" y="134.4" text-anchor="middle" font-size="11" font-weight="600" fill="#111" font-family="Inter,Arial,sans-serif">6</text>
<text x="231.5" y="220.0" text-anchor="middle" font-size="11" fill="#333" font-family="Inter,Arial,sans-serif">Tổ 3</text>
<rect x="287.8" y="83.7" width="37.5" height="120.3" fill="#a78bfa"/>
<text x="306.5" y="79.7" text-anchor="middle" font-size="11" font-weight="600" fill="#111" font-family="Inter,Arial,sans-serif">11</text>
<text x="306.5" y="220.0" text-anchor="middle" font-size="11" fill="#333" font-family="Inter,Arial,sans-serif">Tổ 4</text>
</svg>
